<svg xmlns="http://www.w3.org/2000/svg" viewBox="0 0 343.25 368.58"><defs><style>.d{fill:#1d1d1b}</style></defs><g id="b"><g id="c"><path d="M81.38 267.55c7.96 7.12 17.18 12.57 26.81 12.57 12.57 0 19.69-5.45 19.69-17.18s-7.54-17.18-18.02-17.18c-7.12 0-10.47 1.26-18.43 6.28l-15.5-10.06 3.35-68.29h78.77v30.17h-47.76l-1.68 19.27c4.61-1.68 8.17-2.09 12.57-2.09 23.04 0 42.73 12.99 42.73 41.06 0 29.75-23.25 46.93-50.28 46.93-21.79 0-37.29-7.96-48.18-18.85l15.92-22.62ZM249.18 209.31c-4.19-4.61-12.57-9.22-20.11-9.22-12.99 0-23.25 9.01-24.51 35.82 6.49-8.59 17.81-13.2 24.93-13.2 22.62 0 40.22 12.57 40.22 41.06s-20.95 45.25-46.09 45.25-51.95-18.43-51.95-66.62 26.39-71.23 54.88-71.23c18.85 0 32.68 7.96 41.48 16.76l-18.85 21.37Zm-12.15 54.47c0-12.78-7.12-15.92-14.66-15.92-6.08 0-12.15 3.14-16.97 11.31 2.93 18.64 10.89 23.04 17.39 23.04 7.54 0 14.24-4.4 14.24-18.43Z" class="d"/><path d="M291.38 25.34h-15.15V12.26c0-6.77-5.49-12.26-12.26-12.26s-12.26 5.49-12.26 12.26v13.08H91.53V12.26C91.53 5.49 86.04 0 79.27 0S67.01 5.49 67.01 12.26v13.08H51.86C23.27 25.34 0 48.6 0 77.2v239.51c0 28.6 23.27 51.87 51.87 51.87h239.51c28.6 0 51.87-23.27 51.87-51.87V77.2c0-28.6-23.27-51.87-51.87-51.87ZM51.87 41.68h15.15v13.08c0 6.77 5.49 12.26 12.26 12.26s12.26-5.49 12.26-12.26V41.68h160.17v13.08c0 6.77 5.49 12.26 12.26 12.26s12.26-5.49 12.26-12.26V41.68h15.15c19.59 0 35.52 15.94 35.52 35.52v36.4H16.35V77.2c0-19.59 15.94-35.52 35.52-35.52Zm239.51 310.56H51.87c-19.59 0-35.52-15.94-35.52-35.52V129.94H326.9v186.77c0 19.59-15.94 35.52-35.52 35.52Z" class="d"/></g></g></svg>