<svg xmlns="http://www.w3.org/2000/svg" viewBox="0 0 80.05 73.86"><path d="M22.31 0A21.58 21.58 0 0 0 6.43 6.91a24.5 24.5 0 0 0 0 33.09l29.91 32.25a5 5 0 0 0 7.06.28l.28-.28Q58.65 56.13 73.62 40a24.45 24.45 0 0 0 0-33A21.61 21.61 0 0 0 41.9 7l-1.84 2-1.91-2a21.51 21.51 0 0 0-15.84-7Zm0 9.75a11.62 11.62 0 0 1 8.53 4l5.53 6a5 5 0 0 0 7.06.27 3.57 3.57 0 0 0 .28-.27l5.5-5.94c4.94-5.32 12.16-5.32 17.1 0a14.66 14.66 0 0 1 0 19.47L40 61.5 13.74 33.19a14.66 14.66 0 0 1 0-19.47 11.68 11.68 0 0 1 8.57-3.97Z"/></svg>